<mxfile modified="2020-09-28T01:35:24.222Z" host="app.diagrams.net" agent="5.0 (Windows)" etag="6FbA6ZVBfq8vXxsYTaEQ" version="13.7.5" type="github">
  <diagram id="f106602c-feb2-e66a-4537-3a34d633f6aa" name="Page-1">
    <mxGraphModel dx="1673" dy="978" grid="1" gridSize="10" guides="1" tooltips="1" connect="1" arrows="1" fold="1" page="1" pageScale="1" pageWidth="1169" pageHeight="827" background="#ffffff" math="0" shadow="0">
      <root>
        <mxCell id="0" />
        <mxCell id="1" parent="0" />
        <mxCell id="nNnAdvkcsYhKvCen85o4-1021" value="" style="strokeColor=#dddddd;fillColor=#ffffff;shadow=1;strokeWidth=1;rounded=1;absoluteArcSize=1;arcSize=2;fontSize=11;fontColor=#9E9E9E;align=center;html=1;" vertex="1" parent="1">
          <mxGeometry x="610" y="639.5" width="200" height="75" as="geometry" />
        </mxCell>
        <mxCell id="nNnAdvkcsYhKvCen85o4-1022" value="&lt;font color=&quot;#000000&quot;&gt;Apache+PHP&lt;/font&gt;&lt;br&gt;&lt;hr&gt;&lt;font style=&quot;font-size: 11px&quot;&gt;阿里云ECS&lt;br&gt;&lt;/font&gt;" style="dashed=0;connectable=0;html=1;fillColor=#5184F3;strokeColor=none;shape=mxgraph.gcp2.hexIcon;prIcon=container_engine;part=1;labelPosition=right;verticalLabelPosition=middle;align=left;verticalAlign=top;spacingLeft=5;fontColor=#999999;fontSize=12;spacingTop=-8;" vertex="1" parent="nNnAdvkcsYhKvCen85o4-1021">
          <mxGeometry width="44" height="39" relative="1" as="geometry">
            <mxPoint x="5" y="7" as="offset" />
          </mxGeometry>
        </mxCell>
        <mxCell id="14" value="阿里云服务器" style="fillColor=#F6F6F6;strokeColor=none;shadow=0;gradientColor=none;fontSize=14;align=left;spacing=10;fontColor=#717171;9E9E9E;verticalAlign=top;spacingTop=-4;fontStyle=0;spacingLeft=40;html=1;" parent="1" vertex="1">
          <mxGeometry x="420" y="99" width="740" height="331" as="geometry" />
        </mxCell>
        <mxCell id="15" value="" style="shape=mxgraph.gcp2.google_cloud_platform;fillColor=#F6F6F6;strokeColor=none;shadow=0;gradientColor=none;" parent="14" vertex="1">
          <mxGeometry width="23" height="20" relative="1" as="geometry">
            <mxPoint x="20" y="10" as="offset" />
          </mxGeometry>
        </mxCell>
        <mxCell id="997" value="Multiple&lt;br&gt;Clients&lt;br&gt;API Requests&lt;br&gt;" style="rounded=1;absoluteArcSize=1;arcSize=2;html=1;strokeColor=none;gradientColor=none;shadow=0;dashed=0;fontSize=12;fontColor=#9E9E9E;align=left;verticalAlign=top;spacing=10;spacingTop=-4;fillColor=#F1F8E9;" parent="1" vertex="1">
          <mxGeometry x="160" y="149.5" width="90" height="230" as="geometry" />
        </mxCell>
        <mxCell id="818" value="Architecture: Backup and Archive &amp;gt; API Hosting" style="fillColor=#4DA1F5;strokeColor=none;shadow=1;gradientColor=none;fontSize=14;align=left;spacingLeft=50;fontColor=#ffffff;html=1;" parent="1" vertex="1">
          <mxGeometry x="190" y="40" width="650" height="40" as="geometry" />
        </mxCell>
        <mxCell id="998" style="edgeStyle=elbowEdgeStyle;rounded=0;elbow=vertical;html=1;labelBackgroundColor=none;startFill=1;startSize=4;endArrow=blockThin;endFill=1;endSize=4;jettySize=auto;orthogonalLoop=1;strokeColor=#4284F3;strokeWidth=2;fontSize=12;fontColor=#000000;align=left;dashed=0;" parent="1" source="997" target="989" edge="1">
          <mxGeometry relative="1" as="geometry" />
        </mxCell>
        <mxCell id="987" value="" style="strokeColor=#dddddd;fillColor=#ffffff;shadow=1;strokeWidth=1;rounded=1;absoluteArcSize=1;arcSize=2;labelPosition=center;verticalLabelPosition=middle;align=center;verticalAlign=bottom;spacingLeft=0;fontColor=#999999;fontSize=12;whiteSpace=wrap;spacingBottom=2;html=1;" parent="1" vertex="1">
          <mxGeometry x="170" y="299" width="70" height="70" as="geometry" />
        </mxCell>
        <mxCell id="988" value="" style="dashed=0;connectable=0;html=1;fillColor=#757575;strokeColor=none;shape=mxgraph.gcp2.laptop;part=1;" parent="987" vertex="1">
          <mxGeometry x="0.5" width="50" height="33" relative="1" as="geometry">
            <mxPoint x="-25" y="18.5" as="offset" />
          </mxGeometry>
        </mxCell>
        <mxCell id="1000" style="edgeStyle=orthogonalEdgeStyle;rounded=0;elbow=vertical;html=1;labelBackgroundColor=none;startFill=1;startSize=4;endArrow=blockThin;endFill=1;endSize=4;jettySize=auto;orthogonalLoop=1;strokeColor=#4284F3;strokeWidth=2;fontSize=12;fontColor=#000000;align=left;dashed=0;" parent="1" source="989" target="993" edge="1">
          <mxGeometry relative="1" as="geometry" />
        </mxCell>
        <mxCell id="1001" style="edgeStyle=orthogonalEdgeStyle;rounded=0;elbow=vertical;html=1;labelBackgroundColor=none;startFill=1;startSize=4;endArrow=blockThin;endFill=1;endSize=4;jettySize=auto;orthogonalLoop=1;strokeColor=#4284F3;strokeWidth=2;fontSize=12;fontColor=#000000;align=left;dashed=0;" parent="1" source="989" target="995" edge="1">
          <mxGeometry relative="1" as="geometry" />
        </mxCell>
        <mxCell id="989" value="" style="strokeColor=#dddddd;fillColor=#ffffff;shadow=1;strokeWidth=1;rounded=1;absoluteArcSize=1;arcSize=2;fontSize=11;fontColor=#9E9E9E;align=center;html=1;" parent="1" vertex="1">
          <mxGeometry x="430" y="294.5" width="130" height="60" as="geometry" />
        </mxCell>
        <mxCell id="990" value="负载均衡器" style="dashed=0;connectable=0;html=1;fillColor=#5184F3;strokeColor=none;shape=mxgraph.gcp2.hexIcon;prIcon=cloud_load_balancing;part=1;labelPosition=right;verticalLabelPosition=middle;align=left;verticalAlign=middle;spacingLeft=5;fontColor=#999999;fontSize=12;" parent="989" vertex="1">
          <mxGeometry y="0.5" width="44" height="39" relative="1" as="geometry">
            <mxPoint x="5" y="-19.5" as="offset" />
          </mxGeometry>
        </mxCell>
        <mxCell id="993" value="" style="strokeColor=#dddddd;fillColor=#ffffff;shadow=1;strokeWidth=1;rounded=1;absoluteArcSize=1;arcSize=2;fontSize=11;fontColor=#9E9E9E;align=center;html=1;" parent="1" vertex="1">
          <mxGeometry x="630" y="240" width="170" height="70" as="geometry" />
        </mxCell>
        <mxCell id="994" value="&lt;div&gt;&lt;font color=&quot;#000000&quot;&gt;Apache+ Mysql&lt;br&gt;&lt;/font&gt;&lt;/div&gt;&lt;hr&gt;&lt;div&gt;&lt;font style=&quot;font-size: 11px&quot;&gt;&amp;nbsp;&amp;nbsp;&amp;nbsp; 阿里云ECS&lt;/font&gt;&lt;/div&gt;" style="dashed=0;connectable=0;html=1;fillColor=#5184F3;strokeColor=none;shape=mxgraph.gcp2.hexIcon;prIcon=compute_engine;part=1;labelPosition=right;verticalLabelPosition=middle;align=left;verticalAlign=top;spacingLeft=5;fontColor=#999999;fontSize=12;spacingTop=-8;" parent="993" vertex="1">
          <mxGeometry width="44" height="39" relative="1" as="geometry">
            <mxPoint x="5" y="7" as="offset" />
          </mxGeometry>
        </mxCell>
        <mxCell id="995" value="" style="strokeColor=#dddddd;fillColor=#ffffff;shadow=1;strokeWidth=1;rounded=1;absoluteArcSize=1;arcSize=2;fontSize=11;fontColor=#9E9E9E;align=center;html=1;" parent="1" vertex="1">
          <mxGeometry x="630" y="340" width="170" height="70" as="geometry" />
        </mxCell>
        <mxCell id="996" value="&lt;font color=&quot;#000000&quot;&gt;Apache+PHP&lt;/font&gt;&lt;br&gt;&lt;hr&gt;&lt;font style=&quot;font-size: 11px&quot;&gt;阿里云ECS&lt;br&gt;&lt;/font&gt;" style="dashed=0;connectable=0;html=1;fillColor=#5184F3;strokeColor=none;shape=mxgraph.gcp2.hexIcon;prIcon=container_engine;part=1;labelPosition=right;verticalLabelPosition=middle;align=left;verticalAlign=top;spacingLeft=5;fontColor=#999999;fontSize=12;spacingTop=-8;" parent="995" vertex="1">
          <mxGeometry width="44" height="39" relative="1" as="geometry">
            <mxPoint x="5" y="7" as="offset" />
          </mxGeometry>
        </mxCell>
        <mxCell id="nNnAdvkcsYhKvCen85o4-1002" value="阿里动态带宽" style="text;html=1;align=center;verticalAlign=middle;resizable=0;points=[];autosize=1;" vertex="1" parent="1">
          <mxGeometry x="310" y="324" width="90" height="20" as="geometry" />
        </mxCell>
        <mxCell id="nNnAdvkcsYhKvCen85o4-1003" value="" style="strokeColor=#dddddd;fillColor=#ffffff;shadow=1;strokeWidth=1;rounded=1;absoluteArcSize=1;arcSize=2;fontSize=11;fontColor=#9E9E9E;align=center;html=1;" vertex="1" parent="1">
          <mxGeometry x="920" y="279.5" width="140" height="70" as="geometry" />
        </mxCell>
        <mxCell id="nNnAdvkcsYhKvCen85o4-1004" value="&lt;div&gt;&lt;font color=&quot;#000000&quot;&gt;&amp;nbsp;&amp;nbsp;&amp;nbsp; MYSQL&lt;/font&gt;&lt;/div&gt;&lt;hr&gt;&lt;font style=&quot;font-size: 11px&quot;&gt;&amp;nbsp;&amp;nbsp; 阿里云RDS&lt;br&gt;&lt;/font&gt;" style="dashed=0;connectable=0;html=1;fillColor=#5184F3;strokeColor=none;shape=mxgraph.gcp2.hexIcon;prIcon=app_engine;part=1;labelPosition=right;verticalLabelPosition=middle;align=left;verticalAlign=top;spacingLeft=5;fontColor=#999999;fontSize=12;spacingTop=-8;" vertex="1" parent="nNnAdvkcsYhKvCen85o4-1003">
          <mxGeometry width="44" height="39" relative="1" as="geometry">
            <mxPoint x="5" y="7" as="offset" />
          </mxGeometry>
        </mxCell>
        <mxCell id="nNnAdvkcsYhKvCen85o4-1005" style="edgeStyle=orthogonalEdgeStyle;rounded=0;elbow=vertical;html=1;labelBackgroundColor=none;startFill=1;startSize=4;endArrow=blockThin;endFill=1;endSize=4;jettySize=auto;orthogonalLoop=1;strokeColor=#4284F3;strokeWidth=2;fontSize=12;fontColor=#000000;align=left;dashed=0;exitX=1;exitY=0.5;exitDx=0;exitDy=0;" edge="1" parent="1" source="995" target="nNnAdvkcsYhKvCen85o4-1003">
          <mxGeometry relative="1" as="geometry">
            <mxPoint x="840" y="363" as="sourcePoint" />
            <mxPoint x="910" y="413.5" as="targetPoint" />
          </mxGeometry>
        </mxCell>
        <mxCell id="nNnAdvkcsYhKvCen85o4-1007" style="edgeStyle=orthogonalEdgeStyle;rounded=0;elbow=vertical;html=1;labelBackgroundColor=none;startFill=1;startSize=4;endArrow=blockThin;endFill=1;endSize=4;jettySize=auto;orthogonalLoop=1;strokeColor=#4284F3;strokeWidth=2;fontSize=12;fontColor=#000000;align=left;dashed=0;exitX=1;exitY=0.5;exitDx=0;exitDy=0;entryX=0;entryY=0.5;entryDx=0;entryDy=0;" edge="1" parent="1" source="993" target="nNnAdvkcsYhKvCen85o4-1003">
          <mxGeometry relative="1" as="geometry">
            <mxPoint x="800" y="279.5" as="sourcePoint" />
            <mxPoint x="920" y="219" as="targetPoint" />
          </mxGeometry>
        </mxCell>
        <mxCell id="nNnAdvkcsYhKvCen85o4-1008" value="" style="strokeColor=#dddddd;fillColor=#ffffff;shadow=1;strokeWidth=1;rounded=1;absoluteArcSize=1;arcSize=2;labelPosition=center;verticalLabelPosition=middle;align=center;verticalAlign=bottom;spacingLeft=0;fontColor=#999999;fontSize=12;whiteSpace=wrap;spacingBottom=2;html=1;" vertex="1" parent="1">
          <mxGeometry x="290" y="150" width="70" height="70" as="geometry" />
        </mxCell>
        <mxCell id="nNnAdvkcsYhKvCen85o4-1009" value="" style="dashed=0;connectable=0;html=1;fillColor=#757575;strokeColor=none;shape=mxgraph.gcp2.mobile_devices;part=1;" vertex="1" parent="nNnAdvkcsYhKvCen85o4-1008">
          <mxGeometry x="0.5" width="50" height="36.5" relative="1" as="geometry">
            <mxPoint x="-25" y="16.75" as="offset" />
          </mxGeometry>
        </mxCell>
        <mxCell id="nNnAdvkcsYhKvCen85o4-1010" value="DNS" style="text;html=1;align=center;verticalAlign=middle;resizable=0;points=[];autosize=1;" vertex="1" parent="1">
          <mxGeometry x="335" y="220" width="40" height="20" as="geometry" />
        </mxCell>
        <mxCell id="nNnAdvkcsYhKvCen85o4-1011" value="&lt;div&gt;客户端&lt;/div&gt;" style="text;html=1;align=center;verticalAlign=middle;resizable=0;points=[];autosize=1;" vertex="1" parent="1">
          <mxGeometry x="190" y="379.5" width="50" height="20" as="geometry" />
        </mxCell>
        <mxCell id="nNnAdvkcsYhKvCen85o4-1012" style="edgeStyle=elbowEdgeStyle;rounded=0;elbow=vertical;html=1;labelBackgroundColor=none;startFill=1;startSize=4;endArrow=blockThin;endFill=1;endSize=4;jettySize=auto;orthogonalLoop=1;strokeColor=#4284F3;strokeWidth=2;fontSize=12;fontColor=#000000;align=left;dashed=0;exitX=1;exitY=0.25;exitDx=0;exitDy=0;" edge="1" parent="1" source="987" target="nNnAdvkcsYhKvCen85o4-1008">
          <mxGeometry relative="1" as="geometry">
            <mxPoint x="240" y="294.5011764705883" as="sourcePoint" />
            <mxPoint x="420" y="294.5011764705883" as="targetPoint" />
          </mxGeometry>
        </mxCell>
        <mxCell id="nNnAdvkcsYhKvCen85o4-1013" value="阿里云服务器" style="fillColor=#F6F6F6;strokeColor=none;shadow=0;gradientColor=none;fontSize=14;align=left;spacing=10;fontColor=#717171;9E9E9E;verticalAlign=top;spacingTop=-4;fontStyle=0;spacingLeft=40;html=1;" vertex="1" parent="1">
          <mxGeometry x="375" y="449" width="740" height="331" as="geometry" />
        </mxCell>
        <mxCell id="nNnAdvkcsYhKvCen85o4-1014" value="" style="shape=mxgraph.gcp2.google_cloud_platform;fillColor=#F6F6F6;strokeColor=none;shadow=0;gradientColor=none;" vertex="1" parent="nNnAdvkcsYhKvCen85o4-1013">
          <mxGeometry width="23" height="20" relative="1" as="geometry">
            <mxPoint x="20" y="10" as="offset" />
          </mxGeometry>
        </mxCell>
        <mxCell id="nNnAdvkcsYhKvCen85o4-1030" value="" style="whiteSpace=wrap;html=1;fillColor=#f8cecc;strokeColor=#b85450;" vertex="1" parent="nNnAdvkcsYhKvCen85o4-1013">
          <mxGeometry x="205" y="190.5" width="260" height="80" as="geometry" />
        </mxCell>
        <mxCell id="nNnAdvkcsYhKvCen85o4-1015" style="edgeStyle=orthogonalEdgeStyle;rounded=0;elbow=vertical;html=1;labelBackgroundColor=none;startFill=1;startSize=4;endArrow=blockThin;endFill=1;endSize=4;jettySize=auto;orthogonalLoop=1;strokeColor=#4284F3;strokeWidth=2;fontSize=12;fontColor=#000000;align=left;dashed=0;" edge="1" parent="1" source="nNnAdvkcsYhKvCen85o4-1017" target="nNnAdvkcsYhKvCen85o4-1019">
          <mxGeometry relative="1" as="geometry" />
        </mxCell>
        <mxCell id="nNnAdvkcsYhKvCen85o4-1016" style="edgeStyle=orthogonalEdgeStyle;rounded=0;elbow=vertical;html=1;labelBackgroundColor=none;startFill=1;startSize=4;endArrow=blockThin;endFill=1;endSize=4;jettySize=auto;orthogonalLoop=1;strokeColor=#4284F3;strokeWidth=2;fontSize=12;fontColor=#000000;align=left;dashed=0;" edge="1" parent="1" source="nNnAdvkcsYhKvCen85o4-1017" target="nNnAdvkcsYhKvCen85o4-1021">
          <mxGeometry relative="1" as="geometry" />
        </mxCell>
        <mxCell id="nNnAdvkcsYhKvCen85o4-1017" value="" style="strokeColor=#dddddd;fillColor=#ffffff;shadow=1;strokeWidth=1;rounded=1;absoluteArcSize=1;arcSize=2;fontSize=11;fontColor=#9E9E9E;align=center;html=1;" vertex="1" parent="1">
          <mxGeometry x="410" y="584.5" width="130" height="60" as="geometry" />
        </mxCell>
        <mxCell id="nNnAdvkcsYhKvCen85o4-1018" value="负载均衡器" style="dashed=0;connectable=0;html=1;fillColor=#5184F3;strokeColor=none;shape=mxgraph.gcp2.hexIcon;prIcon=cloud_load_balancing;part=1;labelPosition=right;verticalLabelPosition=middle;align=left;verticalAlign=middle;spacingLeft=5;fontColor=#999999;fontSize=12;" vertex="1" parent="nNnAdvkcsYhKvCen85o4-1017">
          <mxGeometry y="0.5" width="44" height="39" relative="1" as="geometry">
            <mxPoint x="5" y="-19.5" as="offset" />
          </mxGeometry>
        </mxCell>
        <mxCell id="nNnAdvkcsYhKvCen85o4-1019" value="" style="strokeColor=#dddddd;fillColor=#ffffff;shadow=1;strokeWidth=1;rounded=1;absoluteArcSize=1;arcSize=2;fontSize=11;fontColor=#9E9E9E;align=center;html=1;" vertex="1" parent="1">
          <mxGeometry x="610" y="530" width="170" height="70" as="geometry" />
        </mxCell>
        <mxCell id="nNnAdvkcsYhKvCen85o4-1020" value="&lt;div&gt;&lt;font color=&quot;#000000&quot;&gt;Nginx+PHP&lt;br&gt;&lt;/font&gt;&lt;/div&gt;&lt;hr&gt;&lt;div&gt;&lt;font style=&quot;font-size: 11px&quot;&gt;&amp;nbsp;&amp;nbsp;&amp;nbsp; 阿里云ECS&lt;/font&gt;&lt;/div&gt;" style="dashed=0;connectable=0;html=1;fillColor=#5184F3;strokeColor=none;shape=mxgraph.gcp2.hexIcon;prIcon=compute_engine;part=1;labelPosition=right;verticalLabelPosition=middle;align=left;verticalAlign=top;spacingLeft=5;fontColor=#999999;fontSize=12;spacingTop=-8;" vertex="1" parent="nNnAdvkcsYhKvCen85o4-1019">
          <mxGeometry width="44" height="39" relative="1" as="geometry">
            <mxPoint x="5" y="7" as="offset" />
          </mxGeometry>
        </mxCell>
        <mxCell id="nNnAdvkcsYhKvCen85o4-1023" value="" style="strokeColor=#dddddd;fillColor=#ffffff;shadow=1;strokeWidth=1;rounded=1;absoluteArcSize=1;arcSize=2;fontSize=11;fontColor=#9E9E9E;align=center;html=1;" vertex="1" parent="1">
          <mxGeometry x="900" y="569.5" width="140" height="70" as="geometry" />
        </mxCell>
        <mxCell id="nNnAdvkcsYhKvCen85o4-1024" value="&lt;div&gt;&lt;font color=&quot;#000000&quot;&gt;&amp;nbsp;&amp;nbsp;&amp;nbsp; MYSQL&lt;/font&gt;&lt;/div&gt;&lt;hr&gt;&lt;font style=&quot;font-size: 11px&quot;&gt;&amp;nbsp;&amp;nbsp; 阿里云RDS&lt;br&gt;&lt;/font&gt;" style="dashed=0;connectable=0;html=1;fillColor=#5184F3;strokeColor=none;shape=mxgraph.gcp2.hexIcon;prIcon=app_engine;part=1;labelPosition=right;verticalLabelPosition=middle;align=left;verticalAlign=top;spacingLeft=5;fontColor=#999999;fontSize=12;spacingTop=-8;" vertex="1" parent="nNnAdvkcsYhKvCen85o4-1023">
          <mxGeometry width="44" height="39" relative="1" as="geometry">
            <mxPoint x="5" y="7" as="offset" />
          </mxGeometry>
        </mxCell>
        <mxCell id="nNnAdvkcsYhKvCen85o4-1025" style="edgeStyle=orthogonalEdgeStyle;rounded=0;elbow=vertical;html=1;labelBackgroundColor=none;startFill=1;startSize=4;endArrow=blockThin;endFill=1;endSize=4;jettySize=auto;orthogonalLoop=1;strokeColor=#4284F3;strokeWidth=2;fontSize=12;fontColor=#000000;align=left;dashed=0;exitX=1;exitY=0.5;exitDx=0;exitDy=0;" edge="1" parent="1" source="nNnAdvkcsYhKvCen85o4-1021" target="nNnAdvkcsYhKvCen85o4-1023">
          <mxGeometry relative="1" as="geometry">
            <mxPoint x="820" y="653" as="sourcePoint" />
            <mxPoint x="890" y="703.5" as="targetPoint" />
          </mxGeometry>
        </mxCell>
        <mxCell id="nNnAdvkcsYhKvCen85o4-1026" style="edgeStyle=orthogonalEdgeStyle;rounded=0;elbow=vertical;html=1;labelBackgroundColor=none;startFill=1;startSize=4;endArrow=blockThin;endFill=1;endSize=4;jettySize=auto;orthogonalLoop=1;strokeColor=#4284F3;strokeWidth=2;fontSize=12;fontColor=#000000;align=left;dashed=0;exitX=1;exitY=0.5;exitDx=0;exitDy=0;entryX=0;entryY=0.5;entryDx=0;entryDy=0;" edge="1" parent="1" source="nNnAdvkcsYhKvCen85o4-1019" target="nNnAdvkcsYhKvCen85o4-1023">
          <mxGeometry relative="1" as="geometry">
            <mxPoint x="780" y="569.5" as="sourcePoint" />
            <mxPoint x="900" y="509" as="targetPoint" />
          </mxGeometry>
        </mxCell>
        <mxCell id="nNnAdvkcsYhKvCen85o4-1032" style="edgeStyle=orthogonalEdgeStyle;rounded=0;orthogonalLoop=1;jettySize=auto;html=1;" edge="1" parent="1" source="nNnAdvkcsYhKvCen85o4-1028" target="nNnAdvkcsYhKvCen85o4-1017">
          <mxGeometry relative="1" as="geometry" />
        </mxCell>
        <mxCell id="nNnAdvkcsYhKvCen85o4-1028" value="" style="strokeColor=#dddddd;fillColor=#ffffff;shadow=1;strokeWidth=1;rounded=1;absoluteArcSize=1;arcSize=2;labelPosition=center;verticalLabelPosition=middle;align=center;verticalAlign=bottom;spacingLeft=0;fontColor=#999999;fontSize=12;whiteSpace=wrap;spacingBottom=2;html=1;" vertex="1" parent="1">
          <mxGeometry x="170" y="574.5" width="70" height="70" as="geometry" />
        </mxCell>
        <mxCell id="nNnAdvkcsYhKvCen85o4-1029" value="" style="dashed=0;connectable=0;html=1;fillColor=#757575;strokeColor=none;shape=mxgraph.gcp2.laptop;part=1;" vertex="1" parent="nNnAdvkcsYhKvCen85o4-1028">
          <mxGeometry x="0.5" width="50" height="33" relative="1" as="geometry">
            <mxPoint x="-25" y="18.5" as="offset" />
          </mxGeometry>
        </mxCell>
      </root>
    </mxGraphModel>
  </diagram>
</mxfile>
